<?xml version="1.0" ?>
<!-- Uploaded to: SVG Repo, www.svgrepo.com, Generator: SVG Repo Mixer Tools -->
<svg fill="#000000" width="800px" height="800px" viewBox="0 0 24 24" xmlns="http://www.w3.org/2000/svg">
<title/>
<g data-name="Layer 2" id="Layer_2">
<path d="M7,16.89V22H17V16.89a7,7,0,0,0,0-9.78V2H7V7.11a7,7,0,0,0,0,9.78ZM9,20V18.31a6.91,6.91,0,0,0,6,0V20ZM15,4V5.68a6.91,6.91,0,0,0-6,0V4ZM12,7a5,5,0,1,1-5,5A5,5,0,0,1,12,7Z"/>
<polygon points="14 11 13 11 13 9 11 9 11 13 14 13 14 11"/>
</g>
</svg>